<svg width="404" height="302" viewBox="0 0 404 302" fill="none" xmlns="http://www.w3.org/2000/svg">
<path fill-rule="evenodd" clip-rule="evenodd" d="M316.902 300C338.807 273.926 352 240.29 352 203.571C352 120.729 284.843 53.5714 202 53.5714C119.157 53.5714 52 120.729 52 203.571C52 240.29 65.1931 273.926 87.0976 300H316.902Z" fill="#F0F3FD"/>
<g opacity="0.15">
<path fill-rule="evenodd" clip-rule="evenodd" d="M261.579 161.909C261.415 162.104 261.309 162.34 261.272 162.592L256.451 195.407C256.36 196.022 256.695 196.62 257.266 196.865L261.579 198.713C261.646 198.742 261.713 198.765 261.78 198.782C261.963 198.829 262.119 198.979 262.119 199.168V209.291C262.119 209.669 262.425 209.976 262.804 209.976C263.182 209.976 263.488 209.669 263.488 209.291V197.464C263.488 197.461 263.488 197.457 263.488 197.454L263.488 160.578C263.488 160.258 263.09 160.113 262.884 160.357L261.579 161.909Z" fill="#A4A4A4"/>
<path fill-rule="evenodd" clip-rule="evenodd" d="M261.579 161.224C261.415 161.419 261.309 161.655 261.272 161.907L256.451 194.722C256.36 195.337 256.695 195.935 257.266 196.18L261.579 198.028C261.646 198.057 261.713 198.08 261.78 198.097C261.963 198.145 262.119 198.294 262.119 198.483V208.606C262.119 208.984 262.425 209.291 262.804 209.291C263.182 209.291 263.488 208.984 263.488 208.606V196.779C263.488 196.776 263.488 196.773 263.488 196.769L263.488 159.893C263.488 159.573 263.09 159.428 262.884 159.672L261.579 161.224Z" fill="#C4C4C4"/>
<path fill-rule="evenodd" clip-rule="evenodd" d="M222.747 233.608C222.998 233.652 223.256 233.626 223.492 233.533L254.321 221.3C254.899 221.071 255.25 220.482 255.176 219.865L254.621 215.206C254.612 215.134 254.598 215.064 254.58 214.997C254.529 214.815 254.581 214.606 254.744 214.511L263.511 209.45C263.839 209.261 263.951 208.842 263.762 208.514C263.573 208.187 263.154 208.074 262.826 208.263L252.582 214.178C252.58 214.179 252.578 214.18 252.576 214.182L246.219 217.851L220.64 232.62C220.363 232.78 220.436 233.198 220.751 233.254L222.747 233.608Z" fill="#A4A4A4"/>
<path fill-rule="evenodd" clip-rule="evenodd" d="M222.405 233.266C222.655 233.31 222.913 233.284 223.149 233.19L253.979 220.958C254.556 220.729 254.907 220.139 254.834 219.522L254.278 214.863C254.27 214.791 254.256 214.722 254.237 214.655C254.187 214.473 254.238 214.263 254.402 214.169L263.169 209.107C263.496 208.918 263.608 208.499 263.419 208.172C263.23 207.844 262.811 207.732 262.484 207.921L252.24 213.835C252.238 213.837 252.235 213.838 252.233 213.839L220.297 232.277C220.02 232.437 220.094 232.855 220.409 232.911L222.405 233.266Z" fill="#C4C4C4"/>
<path fill-rule="evenodd" clip-rule="evenodd" d="M304.7 231.956C304.614 231.717 304.462 231.507 304.263 231.349L278.255 210.766C277.767 210.381 277.082 210.372 276.584 210.744L272.827 213.555C272.769 213.598 272.716 213.645 272.667 213.694C272.534 213.829 272.327 213.889 272.164 213.795L263.397 208.733C263.069 208.544 262.65 208.656 262.461 208.984C262.272 209.311 262.384 209.73 262.712 209.919L272.955 215.833C272.958 215.835 272.96 215.836 272.963 215.838L304.899 234.276C305.175 234.436 305.501 234.163 305.392 233.863L304.7 231.956Z" fill="#A4A4A4"/>
<path fill-rule="evenodd" clip-rule="evenodd" d="M304.7 231.272C304.614 231.033 304.462 230.822 304.263 230.665L278.255 210.082C277.767 209.696 277.082 209.687 276.584 210.059L272.827 212.87C272.769 212.913 272.716 212.96 272.667 213.009C272.534 213.144 272.327 213.204 272.164 213.11L263.397 208.048C263.069 207.859 262.65 207.971 262.461 208.299C262.272 208.627 262.384 209.045 262.712 209.235L272.955 215.148C272.957 215.15 272.96 215.151 272.963 215.153L304.899 233.591C305.175 233.751 305.501 233.478 305.392 233.178L304.7 231.272Z" fill="#C4C4C4"/>
<path fill-rule="evenodd" clip-rule="evenodd" d="M264.564 211.38C265.542 210.962 266.228 209.991 266.228 208.859C266.228 207.346 265.001 206.12 263.488 206.12C261.975 206.12 260.749 207.346 260.749 208.859C260.749 209.991 261.434 210.961 262.413 211.38L256.982 302H269.994L264.564 211.38Z" fill="#A4A4A4"/>
<path fill-rule="evenodd" clip-rule="evenodd" d="M263.879 211.38C264.857 210.961 265.543 209.991 265.543 208.859C265.543 207.346 264.316 206.12 262.804 206.12C261.291 206.12 260.064 207.346 260.064 208.859C260.064 209.991 260.75 210.961 261.728 211.38L256.297 302H269.31L263.879 211.38Z" fill="#C4C4C4"/>
</g>
<g opacity="0.6">
<rect x="56" y="176" width="26.7138" height="62.9968" rx="13.3569" fill="#E9EBF2"/>
<rect x="68.7589" y="201.518" width="1.59486" height="98.4823" rx="0.797428" fill="#E1E2E5"/>
<rect x="75.3385" y="205.019" width="1.59486" height="13.443" rx="0.797428" transform="rotate(30 75.3385 205.019)" fill="#E1E2E5"/>
<rect width="1.59486" height="18.9128" rx="0.797428" transform="matrix(0.866025 -0.5 -0.5 -0.866025 69.2009 226.49)" fill="#E1E2E5"/>
</g>
<rect x="91" y="124" width="38.1994" height="90.0821" rx="19.0997" fill="#E9EBF2"/>
<rect x="109.245" y="160.489" width="2.28056" height="140.825" rx="1.14028" fill="#E1E2E5"/>
<rect x="118.653" y="165.496" width="2.28056" height="19.2228" rx="1.14028" transform="rotate(30 118.653 165.496)" fill="#E1E2E5"/>
<rect width="2.28056" height="27.0444" rx="1.14028" transform="matrix(0.866025 -0.5 -0.5 -0.866025 109.877 196.198)" fill="#E1E2E5"/>
<path opacity="0.8" fill-rule="evenodd" clip-rule="evenodd" d="M142 102.932C142 103.001 141.999 103.07 141.997 103.138C146.285 103.245 149.729 106.754 149.729 111.068C149.729 115.381 146.287 118.89 142 118.997V119H141.804C141.802 119 141.799 119 141.797 119C141.794 119 141.791 119 141.789 119H126.136V118.997C126.068 118.999 126 119 125.932 119C121.551 119 118 115.449 118 111.068C118 106.687 121.551 103.136 125.932 103.136C126.001 103.136 126.07 103.136 126.138 103.138C126.136 103.07 126.136 103.001 126.136 102.932C126.136 98.5514 129.687 95 134.068 95C138.449 95 142 98.5514 142 102.932Z" fill="white"/>
<path opacity="0.6" fill-rule="evenodd" clip-rule="evenodd" d="M288.103 126.897C288.103 126.932 288.102 126.967 288.101 127.001C290.264 127.055 292 128.825 292 131C292 133.175 290.264 134.944 288.103 134.999V135H288.01C288.007 135 288.003 135 288 135C287.996 135 287.993 135 287.989 135H280.103V134.999C280.069 135 280.034 135 280 135C277.791 135 276 133.209 276 131C276 128.791 277.791 127 280 127C280.035 127 280.069 127 280.104 127.001C280.103 126.967 280.103 126.932 280.103 126.897C280.103 124.688 281.894 122.897 284.103 122.897C286.312 122.897 288.103 124.688 288.103 126.897Z" fill="white"/>
<path fill-rule="evenodd" clip-rule="evenodd" d="M221.2 80.8281C221.2 73.7434 226.943 68 234.028 68C239.286 68 243.804 71.1628 245.786 75.6895C247.061 74.7876 248.617 74.2576 250.298 74.2576C254.252 74.2576 257.52 77.1909 258.046 81H260.98C264.57 81 267.48 83.9101 267.48 87.5C267.48 91.0898 264.57 94 260.98 94H222.5C218.91 94 216 91.0898 216 87.5C216 84.3541 218.235 81.7302 221.203 81.1293C221.201 81.0292 221.2 80.9288 221.2 80.8281Z" fill="white"/>
<path opacity="0.6" fill-rule="evenodd" clip-rule="evenodd" d="M133.121 166.233C133.121 163.343 135.464 161 138.354 161C140.499 161 142.342 162.29 143.15 164.137C143.67 163.769 144.305 163.553 144.991 163.553C146.604 163.553 147.937 164.749 148.152 166.303H149.348C150.813 166.303 152 167.49 152 168.955C152 170.419 150.813 171.606 149.348 171.606H133.652C132.187 171.606 131 170.419 131 168.955C131 167.671 131.912 166.601 133.123 166.356C133.122 166.315 133.121 166.274 133.121 166.233Z" fill="white"/>
<path fill-rule="evenodd" clip-rule="evenodd" d="M317.382 81.71C317.125 82.016 316.957 82.3876 316.899 82.7832L309.318 134.384C309.176 135.351 309.702 136.292 310.6 136.677L317.382 139.584C317.487 139.629 317.593 139.664 317.698 139.692C317.986 139.766 318.231 140.001 318.231 140.298V156.217C318.231 156.811 318.713 157.293 319.308 157.293C319.903 157.293 320.385 156.811 320.385 156.217V137.619C320.385 137.614 320.385 137.609 320.385 137.604L320.385 79.6164C320.385 79.114 319.758 78.8854 319.434 79.2699L317.382 81.71Z" fill="#DCDFE6"/>
<path fill-rule="evenodd" clip-rule="evenodd" d="M317.382 80.6331C317.125 80.9391 316.957 81.3107 316.899 81.7063L309.318 133.307C309.176 134.274 309.702 135.215 310.6 135.6L317.382 138.507C317.487 138.552 317.593 138.588 317.698 138.615C317.986 138.69 318.231 138.924 318.231 139.221V155.14C318.231 155.734 318.713 156.217 319.308 156.217C319.903 156.217 320.385 155.734 320.385 155.14V136.542C320.385 136.537 320.385 136.532 320.385 136.527L320.385 78.5395C320.385 78.0371 319.758 77.8085 319.434 78.193L317.382 80.6331Z" fill="#E9EBF2"/>
<path fill-rule="evenodd" clip-rule="evenodd" d="M256.32 194.455C256.714 194.525 257.119 194.484 257.491 194.336L305.969 175.101C306.878 174.741 307.429 173.814 307.314 172.844L306.44 165.518C306.426 165.405 306.405 165.295 306.376 165.19C306.296 164.903 306.377 164.574 306.635 164.426L320.42 156.466C320.935 156.169 321.112 155.51 320.814 154.995C320.517 154.48 319.858 154.304 319.343 154.601L303.235 163.901C303.232 163.903 303.228 163.905 303.224 163.907L253.006 192.901C252.571 193.152 252.686 193.81 253.181 193.898L256.32 194.455Z" fill="#DCDFE6"/>
<path fill-rule="evenodd" clip-rule="evenodd" d="M255.782 193.916C256.175 193.986 256.581 193.945 256.952 193.798L305.431 174.563C306.339 174.203 306.891 173.276 306.775 172.306L305.902 164.979C305.888 164.866 305.866 164.757 305.837 164.651C305.758 164.365 305.839 164.036 306.096 163.887L319.882 155.928C320.397 155.631 320.573 154.972 320.276 154.457C319.979 153.942 319.32 153.765 318.805 154.063L302.697 163.363C302.693 163.365 302.69 163.367 302.686 163.369L252.467 192.363C252.032 192.614 252.148 193.271 252.642 193.359L255.782 193.916Z" fill="#E9EBF2"/>
<path fill-rule="evenodd" clip-rule="evenodd" d="M385.189 191.858C385.053 191.482 384.815 191.152 384.501 190.903L343.604 158.537C342.838 157.931 341.76 157.916 340.977 158.502L335.069 162.922C334.978 162.99 334.894 163.063 334.817 163.141C334.609 163.353 334.283 163.448 334.026 163.299L320.24 155.34C319.725 155.043 319.067 155.219 318.769 155.734C318.472 156.249 318.648 156.908 319.163 157.205L335.27 166.504C335.274 166.507 335.278 166.509 335.282 166.512L385.501 195.505C385.936 195.756 386.448 195.328 386.276 194.855L385.189 191.858Z" fill="#DCDFE6"/>
<path fill-rule="evenodd" clip-rule="evenodd" d="M385.189 190.781C385.053 190.405 384.815 190.075 384.501 189.827L343.604 157.46C342.838 156.854 341.76 156.839 340.977 157.425L335.069 161.845C334.978 161.913 334.894 161.986 334.817 162.064C334.609 162.276 334.283 162.371 334.026 162.222L320.24 154.263C319.725 153.966 319.067 154.142 318.769 154.657C318.472 155.172 318.648 155.831 319.163 156.128L335.27 165.428C335.274 165.43 335.278 165.432 335.282 165.435L385.501 194.428C385.936 194.68 386.448 194.251 386.276 193.778L385.189 190.781Z" fill="#E9EBF2"/>
<path fill-rule="evenodd" clip-rule="evenodd" d="M322.076 159.501C323.614 158.844 324.692 157.317 324.692 155.538C324.692 153.159 322.764 151.231 320.385 151.231C318.006 151.231 316.077 153.159 316.077 155.538C316.077 157.317 317.155 158.844 318.693 159.501L310.154 302H330.615L322.076 159.501Z" fill="#DCDFE6"/>
<path fill-rule="evenodd" clip-rule="evenodd" d="M320.999 159.501C322.537 158.844 323.615 157.317 323.615 155.538C323.615 153.159 321.687 151.231 319.308 151.231C316.929 151.231 315 153.159 315 155.538C315 157.317 316.078 158.844 317.616 159.501L309.077 302H329.538L320.999 159.501Z" fill="#E9EBF2"/>
<path d="M331.906 299H320.967C308.293 299 313.761 295.234 316.968 294.503C309.801 291.947 315.082 287.131 318.704 289.14C316.441 280.375 324.174 282.201 325.683 287.131C328.7 282.019 333.981 284.575 330.775 290.053C336.244 287.679 336.244 292.427 333.981 293.887C339.45 294.8 336.394 296.512 333.376 296.512C336.96 298.52 334.319 299 331.906 299Z" fill="#D7D8DE"/>
<path d="M283.906 299H272.967C260.293 299 265.761 295.234 268.968 294.503C261.801 291.947 267.082 287.131 270.704 289.14C268.441 280.375 276.174 282.201 277.683 287.131C280.7 282.019 285.981 284.575 282.775 290.053C288.244 287.679 288.244 292.427 285.981 293.887C291.45 294.8 288.394 296.512 285.376 296.512C288.96 298.52 286.319 299 283.906 299Z" fill="#D7D8DE"/>
<path d="M316.538 300H295.116C270.296 300 281.004 292.938 287.283 291.569C273.248 286.776 283.59 277.746 290.684 281.512C286.252 265.079 301.395 268.503 304.35 277.746C310.259 268.16 320.601 272.953 314.322 283.224C325.033 278.774 325.033 287.675 320.601 290.414C331.312 292.126 325.326 295.335 319.416 295.335C326.434 299.101 321.263 300 316.538 300Z" fill="#E1E1E6"/>
<path d="M273.403 279.831C273.26 278.833 272.842 277.83 271.992 277.143C273.981 277.205 274.738 277.746 275.561 278.553C277.552 280.504 276.486 282.886 275.318 282.504C274.151 282.123 273.551 280.865 273.403 279.831Z" fill="#E5E6ED"/>
<path d="M273.247 277.672C275.329 278.69 276.117 281.384 276.398 282.717L276.133 282.784C275.777 279.991 274.372 278.235 273.247 277.672C273.211 277.654 273.175 277.637 273.138 277.621C273.174 277.636 273.211 277.653 273.247 277.672Z" fill="#727785"/>
<path d="M275.141 278.4C275.484 278.829 275.38 279.487 275.305 279.802L275.242 279.789C275.448 279.154 275.325 278.635 275.141 278.4C275.135 278.392 275.129 278.385 275.123 278.378C275.129 278.385 275.135 278.392 275.141 278.4Z" fill="#727785"/>
<path d="M274.136 278.774C274.307 279.023 274.65 279.076 274.817 279.089L274.818 279.054C274.474 279.058 274.23 278.908 274.136 278.774C274.133 278.77 274.131 278.765 274.128 278.761C274.13 278.765 274.133 278.77 274.136 278.774Z" fill="#727785"/>
<path d="M275.96 279.39C276.181 279.894 275.911 280.503 275.758 280.787L275.7 280.759C276.063 280.198 276.077 279.665 275.96 279.39C275.956 279.382 275.952 279.373 275.948 279.365C275.952 279.373 275.956 279.382 275.96 279.39Z" fill="#727785"/>
<path d="M274.24 279.721C274.547 280.177 275.205 280.276 275.528 280.3L275.535 280.235C274.867 280.241 274.409 279.967 274.24 279.721C274.235 279.713 274.23 279.705 274.225 279.697C274.23 279.705 274.235 279.713 274.24 279.721Z" fill="#727785"/>
<path d="M274.228 280.768C274.655 281.433 275.542 281.599 275.975 281.644L275.982 281.552C275.087 281.536 274.463 281.127 274.228 280.768C274.22 280.757 274.213 280.745 274.206 280.734C274.213 280.745 274.22 280.757 274.228 280.768Z" fill="#727785"/>
<path d="M332.01 282.284C332.591 281.46 333.419 280.757 334.489 280.531C332.689 279.682 331.769 279.821 330.669 280.165C328.009 280.997 327.876 283.604 329.089 283.795C330.302 283.986 331.408 283.137 332.01 282.284Z" fill="#E5E6ED"/>
<path d="M333.13 280.432C330.814 280.393 328.887 282.434 328.031 283.494L328.236 283.674C329.823 281.348 331.872 280.422 333.13 280.432C333.17 280.432 333.211 280.434 333.251 280.436C333.211 280.433 333.171 280.432 333.13 280.432Z" fill="#727785"/>
<path d="M331.113 280.22C330.612 280.446 330.405 281.079 330.329 281.393L330.392 281.411C330.496 280.751 330.842 280.345 331.113 280.22C331.122 280.216 331.13 280.212 331.139 280.208C331.131 280.212 331.122 280.215 331.113 280.22Z" fill="#727785"/>
<path d="M331.837 281.01C331.572 281.154 331.243 281.046 331.088 280.981L331.103 280.949C331.408 281.109 331.693 281.087 331.837 281.01C331.842 281.007 331.847 281.004 331.851 281.002C331.847 281.004 331.842 281.007 331.837 281.01Z" fill="#727785"/>
<path d="M329.933 280.73C329.507 281.078 329.471 281.743 329.478 282.066L329.543 282.067C329.474 281.402 329.703 280.921 329.933 280.73C329.94 280.724 329.948 280.718 329.955 280.712C329.948 280.718 329.94 280.724 329.933 280.73Z" fill="#727785"/>
<path d="M331.315 281.805C330.834 282.073 330.203 281.862 329.905 281.736L329.928 281.675C330.52 281.984 331.053 281.948 331.315 281.805C331.323 281.801 331.331 281.796 331.339 281.791C331.331 281.796 331.323 281.801 331.315 281.805Z" fill="#727785"/>
<path d="M330.85 282.744C330.167 283.142 329.302 282.887 328.895 282.73L328.931 282.645C329.735 283.037 330.477 282.957 330.85 282.744C330.861 282.738 330.873 282.73 330.885 282.723C330.873 282.73 330.862 282.737 330.85 282.744Z" fill="#727785"/>
<path d="M309.101 265.924C309.171 264.918 309.516 263.888 310.313 263.14C308.335 263.346 307.619 263.942 306.856 264.806C305.012 266.896 306.249 269.195 307.386 268.729C308.522 268.264 309.029 266.965 309.101 265.924Z" fill="#E5E6ED"/>
<path d="M309.1 263.759C307.098 264.926 306.508 267.67 306.324 269.02L306.594 269.067C306.745 266.256 308.019 264.402 309.1 263.759C309.134 263.739 309.169 263.719 309.205 263.7C309.17 263.718 309.135 263.738 309.1 263.759Z" fill="#727785"/>
<path d="M307.264 264.623C306.953 265.076 307.105 265.725 307.202 266.033L307.265 266.016C307.012 265.397 307.098 264.87 307.264 264.623C307.27 264.615 307.275 264.607 307.281 264.599C307.275 264.607 307.27 264.615 307.264 264.623Z" fill="#727785"/>
<path d="M308.293 264.923C308.141 265.184 307.803 265.262 307.638 265.286L307.633 265.251C307.977 265.23 308.209 265.064 308.293 264.923C308.296 264.918 308.299 264.914 308.301 264.909C308.299 264.914 308.296 264.918 308.293 264.923Z" fill="#727785"/>
<path d="M306.52 265.67C306.336 266.188 306.649 266.776 306.823 267.049L306.879 267.016C306.475 266.484 306.422 265.953 306.52 265.67C306.523 265.661 306.526 265.652 306.53 265.644C306.526 265.652 306.523 265.661 306.52 265.67Z" fill="#727785"/>
<path d="M308.258 265.875C307.986 266.352 307.337 266.499 307.017 266.546L307.005 266.482C307.672 266.439 308.108 266.133 308.258 265.875C308.263 265.866 308.268 265.858 308.272 265.85C308.268 265.858 308.263 265.866 308.258 265.875Z" fill="#727785"/>
<path d="M308.347 266.919C307.969 267.612 307.097 267.842 306.668 267.919L306.655 267.828C307.546 267.746 308.139 267.293 308.347 266.919C308.354 266.907 308.36 266.895 308.366 266.882C308.36 266.894 308.354 266.906 308.347 266.919Z" fill="#727785"/>
<path d="M287.5 266.729C287.466 266.137 287.271 265.528 286.807 265.082C287.97 265.218 288.387 265.573 288.829 266.088C289.899 267.331 289.155 268.674 288.489 268.392C287.824 268.11 287.535 267.342 287.5 266.729Z" fill="#E5E6ED"/>
<path d="M287.517 265.455C288.686 266.156 289.013 267.775 289.111 268.571L288.953 268.597C288.884 266.941 288.148 265.842 287.517 265.455C287.497 265.443 287.476 265.431 287.456 265.42C287.476 265.431 287.496 265.443 287.517 265.455Z" fill="#727785"/>
<path d="M288.591 265.977C288.77 266.246 288.677 266.626 288.617 266.807L288.58 266.796C288.733 266.434 288.687 266.124 288.591 265.977C288.588 265.972 288.584 265.967 288.581 265.963C288.584 265.967 288.587 265.972 288.591 265.977Z" fill="#727785"/>
<path d="M287.983 266.146C288.071 266.3 288.269 266.349 288.366 266.364L288.369 266.344C288.167 266.329 288.031 266.229 287.983 266.146C287.981 266.143 287.98 266.14 287.979 266.138C287.98 266.14 287.981 266.143 287.983 266.146Z" fill="#727785"/>
<path d="M289.021 266.598C289.126 266.905 288.937 267.248 288.833 267.407L288.8 267.388C289.041 267.077 289.076 266.765 289.021 266.598C289.019 266.593 289.017 266.588 289.015 266.583C289.017 266.588 289.019 266.593 289.021 266.598Z" fill="#727785"/>
<path d="M287.996 266.706C288.153 266.989 288.534 267.08 288.722 267.11L288.73 267.072C288.338 267.042 288.083 266.859 287.996 266.706C287.994 266.701 287.991 266.696 287.989 266.691C287.991 266.696 287.994 266.701 287.996 266.706Z" fill="#727785"/>
<path d="M287.937 267.32C288.154 267.73 288.666 267.872 288.917 267.92L288.926 267.867C288.402 267.812 288.057 267.541 287.937 267.32C287.933 267.312 287.929 267.305 287.926 267.298C287.929 267.305 287.933 267.312 287.937 267.32Z" fill="#727785"/>
<path d="M75.5896 300H64.9758C52.6784 300 57.984 296.501 61.0949 295.823C54.141 293.448 59.2649 288.974 62.7798 290.84C60.5839 282.698 68.0867 284.394 69.5507 288.974C72.4786 284.225 77.6025 286.599 74.4916 291.688C79.7985 289.483 79.7985 293.893 77.6025 295.25C82.9094 296.099 79.9435 297.689 77.0156 297.689C80.4925 299.555 77.9306 300 75.5896 300Z" fill="#EDEEF2"/>
<path d="M81.4763 299.505H76.0565C69.777 299.505 72.4862 297.639 74.0747 297.277C70.5238 296.01 73.1403 293.624 74.9351 294.619C73.8138 290.277 77.645 291.181 78.3926 293.624C79.8877 291.091 82.5042 292.358 80.9156 295.072C83.6255 293.896 83.6255 296.248 82.5042 296.971C85.2141 297.424 83.6995 298.272 82.2044 298.272C83.9799 299.267 82.6717 299.505 81.4763 299.505Z" fill="#DFE0E6"/>
<path d="M57.2465 287.448C56.9587 287.04 56.5483 286.692 56.0183 286.58C56.9099 286.159 57.3659 286.228 57.9112 286.398C59.2291 286.811 59.295 288.102 58.6938 288.197C58.0925 288.291 57.5447 287.871 57.2465 287.448Z" fill="#E5E6ED"/>
<path d="M56.6914 286.531C57.8394 286.511 58.7939 287.523 59.2181 288.048L59.1162 288.137C58.3303 286.984 57.3147 286.526 56.6914 286.531C56.6716 286.531 56.6518 286.532 56.6318 286.532C56.6513 286.531 56.6712 286.531 56.6914 286.531Z" fill="#727785"/>
<path d="M57.691 286.425C57.9392 286.538 58.0415 286.851 58.0793 287.007L58.0484 287.016C57.9966 286.689 57.8252 286.488 57.691 286.425C57.6867 286.423 57.6824 286.422 57.678 286.42C57.6823 286.421 57.6866 286.423 57.691 286.425Z" fill="#727785"/>
<path d="M57.3321 286.817C57.4636 286.888 57.6267 286.835 57.7031 286.802L57.696 286.787C57.5451 286.866 57.4038 286.855 57.3321 286.817C57.3298 286.816 57.3276 286.814 57.3253 286.813C57.3275 286.814 57.3298 286.815 57.3321 286.817Z" fill="#727785"/>
<path d="M58.2756 286.678C58.4866 286.85 58.5046 287.18 58.5011 287.34L58.469 287.341C58.5031 287.011 58.3893 286.773 58.2756 286.678C58.272 286.675 58.2683 286.672 58.2645 286.669C58.2682 286.672 58.2719 286.675 58.2756 286.678Z" fill="#727785"/>
<path d="M57.591 287.211C57.829 287.344 58.1419 287.239 58.2895 287.177L58.2781 287.147C57.9847 287.3 57.7208 287.282 57.591 287.211C57.5869 287.209 57.5828 287.206 57.5787 287.204C57.5827 287.206 57.5868 287.209 57.591 287.211Z" fill="#727785"/>
<path d="M57.8215 287.676C58.1598 287.873 58.5884 287.747 58.7898 287.669L58.7723 287.627C58.3735 287.821 58.006 287.782 57.8215 287.676C57.8157 287.673 57.8099 287.669 57.8041 287.666C57.8097 287.669 57.8155 287.673 57.8215 287.676Z" fill="#727785"/>
<path d="M81.9787 290.916C82.2665 290.508 82.677 290.16 83.2069 290.048C82.3153 289.627 81.8593 289.696 81.3141 289.867C79.9961 290.279 79.9302 291.571 80.5315 291.665C81.1327 291.76 81.6805 291.339 81.9787 290.916Z" fill="#E5E6ED"/>
<path d="M82.5338 289.999C81.3858 289.979 80.4314 290.991 80.0071 291.516L80.109 291.605C80.8949 290.453 81.9105 289.994 82.5338 289.999C82.5536 289.999 82.5735 290 82.5934 290.001C82.5739 290 82.5541 289.999 82.5338 289.999Z" fill="#727785"/>
<path d="M81.5343 289.894C81.286 290.006 81.1837 290.32 81.1459 290.475L81.1768 290.484C81.2286 290.157 81.4 289.956 81.5343 289.894C81.5385 289.892 81.5429 289.89 81.5472 289.888C81.543 289.89 81.5386 289.892 81.5343 289.894Z" fill="#727785"/>
<path d="M81.8931 290.285C81.7616 290.356 81.5985 290.303 81.5221 290.271L81.5292 290.255C81.6802 290.334 81.8214 290.323 81.8931 290.285C81.8954 290.284 81.8977 290.282 81.8999 290.281C81.8977 290.282 81.8955 290.284 81.8931 290.285Z" fill="#727785"/>
<path d="M80.9496 290.146C80.7386 290.319 80.7206 290.648 80.7241 290.808L80.7563 290.809C80.7221 290.48 80.8359 290.241 80.9496 290.146C80.9532 290.143 80.9569 290.14 80.9607 290.138C80.957 290.14 80.9533 290.143 80.9496 290.146Z" fill="#727785"/>
<path d="M81.6342 290.679C81.3963 290.812 81.0833 290.707 80.9358 290.645L80.9471 290.615C81.2406 290.768 81.5044 290.75 81.6342 290.679C81.6383 290.677 81.6424 290.675 81.6465 290.672C81.6425 290.675 81.6385 290.677 81.6342 290.679Z" fill="#727785"/>
<path d="M81.4037 291.145C81.0654 291.341 80.6368 291.215 80.4354 291.138L80.4529 291.095C80.8517 291.29 81.2192 291.25 81.4037 291.145C81.4095 291.141 81.4154 291.138 81.4211 291.134C81.4155 291.138 81.4097 291.141 81.4037 291.145Z" fill="#727785"/>
<path d="M70.914 285.098C70.9487 284.6 71.1193 284.09 71.5146 283.719C70.5341 283.821 70.1796 284.116 69.8016 284.545C68.888 285.58 69.5008 286.719 70.064 286.488C70.6271 286.258 70.878 285.614 70.914 285.098Z" fill="#E5E6ED"/>
<path d="M70.9133 284.026C69.9215 284.604 69.6291 285.964 69.5382 286.632L69.6716 286.656C69.7467 285.263 70.3778 284.345 70.9133 284.026C70.9305 284.016 70.9478 284.006 70.9653 283.997C70.9481 284.006 70.9308 284.015 70.9133 284.026Z" fill="#727785"/>
<path d="M70.0039 284.454C69.8497 284.678 69.9248 285 69.9731 285.152L70.004 285.144C69.879 284.837 69.9213 284.576 70.0039 284.454C70.0066 284.45 70.0093 284.446 70.0121 284.442C70.0093 284.446 70.0066 284.45 70.0039 284.454Z" fill="#727785"/>
<path d="M70.5136 284.603C70.4381 284.732 70.2709 284.77 70.1889 284.783L70.1867 284.765C70.3569 284.755 70.4721 284.672 70.5136 284.603C70.5149 284.6 70.5162 284.598 70.5175 284.596C70.5163 284.598 70.515 284.6 70.5136 284.603Z" fill="#727785"/>
<path d="M69.6348 284.973C69.5437 285.23 69.699 285.521 69.785 285.656L69.8127 285.64C69.6129 285.376 69.5866 285.113 69.6348 284.973C69.6364 284.968 69.638 284.964 69.6398 284.96C69.638 284.964 69.6364 284.968 69.6348 284.973Z" fill="#727785"/>
<path d="M70.4965 285.074C70.3617 285.311 70.0397 285.383 69.8813 285.407L69.8754 285.375C70.2057 285.354 70.4221 285.202 70.4965 285.074C70.4988 285.07 70.5011 285.066 70.5033 285.062C70.5012 285.066 70.4989 285.07 70.4965 285.074Z" fill="#727785"/>
<path d="M70.5403 285.591C70.353 285.935 69.9209 286.049 69.7085 286.087L69.7016 286.042C70.1434 286.001 70.4371 285.777 70.5403 285.591C70.5436 285.585 70.5467 285.579 70.5498 285.573C70.5468 285.579 70.5437 285.585 70.5403 285.591Z" fill="#727785"/>
<path d="M60.4658 285.002C60.449 284.708 60.3523 284.407 60.1225 284.186C60.6986 284.253 60.905 284.429 61.1243 284.684C61.6543 285.3 61.2854 285.966 60.9557 285.826C60.6261 285.686 60.4832 285.306 60.4658 285.002Z" fill="#E5E6ED"/>
<path d="M60.474 284.371C61.0533 284.718 61.2154 285.52 61.264 285.914L61.1854 285.927C61.1514 285.107 60.7868 284.562 60.474 284.371C60.464 284.365 60.4539 284.359 60.4436 284.353C60.4537 284.359 60.4638 284.364 60.474 284.371Z" fill="#727785"/>
<path d="M61.006 284.629C61.095 284.762 61.0485 284.951 61.019 285.04L61.0008 285.035C61.0767 284.856 61.0537 284.702 61.006 284.629C61.0044 284.627 61.0028 284.625 61.0012 284.622C61.0028 284.625 61.0044 284.627 61.006 284.629Z" fill="#727785"/>
<path d="M60.705 284.713C60.7484 284.79 60.8466 284.814 60.8947 284.821L60.8961 284.811C60.7961 284.804 60.7289 284.754 60.705 284.713C60.7042 284.712 60.7035 284.71 60.7028 284.709C60.7034 284.71 60.7042 284.712 60.705 284.713Z" fill="#727785"/>
<path d="M61.2192 284.937C61.271 285.089 61.1775 285.259 61.1259 285.338L61.1097 285.328C61.2292 285.174 61.2466 285.02 61.2192 284.937C61.2183 284.935 61.2174 284.932 61.2164 284.929C61.2174 284.932 61.2184 284.935 61.2192 284.937Z" fill="#727785"/>
<path d="M60.7116 284.991C60.7892 285.131 60.978 285.176 61.0711 285.191L61.0748 285.172C60.8806 285.157 60.7544 285.066 60.7116 284.991C60.7102 284.988 60.7089 284.986 60.7076 284.983C60.7089 284.986 60.7102 284.988 60.7116 284.991Z" fill="#727785"/>
<path d="M60.682 285.295C60.7897 285.498 61.0431 285.568 61.1677 285.592L61.1721 285.566C60.9125 285.539 60.7414 285.404 60.682 285.295C60.6801 285.291 60.6783 285.287 60.6765 285.284C60.6782 285.287 60.68 285.291 60.682 285.295Z" fill="#727785"/>
<path d="M78.7595 288.47C78.7763 288.177 78.8729 287.875 79.1028 287.654C78.5266 287.721 78.3202 287.898 78.101 288.152C77.571 288.768 77.9398 289.434 78.2695 289.294C78.5991 289.154 78.7421 288.774 78.7595 288.47Z" fill="#E5E6ED"/>
<path d="M78.7512 287.839C78.1719 288.186 78.0098 288.988 77.9612 289.383L78.0398 289.395C78.0739 288.575 78.4385 288.03 78.7512 287.839C78.7612 287.833 78.7714 287.827 78.7816 287.821C78.7716 287.827 78.7614 287.833 78.7512 287.839Z" fill="#727785"/>
<path d="M78.2193 288.097C78.1302 288.231 78.1767 288.419 78.2062 288.509L78.2244 288.503C78.1486 288.324 78.1716 288.17 78.2193 288.097C78.2208 288.095 78.2224 288.093 78.224 288.091C78.2224 288.093 78.2208 288.095 78.2193 288.097Z" fill="#727785"/>
<path d="M78.5203 288.181C78.4768 288.258 78.3787 288.282 78.3305 288.289L78.3291 288.279C78.4292 288.272 78.4963 288.223 78.5203 288.181C78.521 288.18 78.5217 288.179 78.5225 288.177C78.5218 288.179 78.521 288.18 78.5203 288.181Z" fill="#727785"/>
<path d="M78.006 288.405C77.9542 288.557 78.0477 288.727 78.0993 288.806L78.1155 288.796C77.996 288.643 77.9786 288.488 78.006 288.405C78.0069 288.403 78.0078 288.4 78.0088 288.398C78.0078 288.4 78.0069 288.403 78.006 288.405Z" fill="#727785"/>
<path d="M78.5137 288.459C78.4361 288.599 78.2472 288.644 78.1541 288.659L78.1504 288.64C78.3446 288.625 78.4708 288.534 78.5137 288.459C78.515 288.456 78.5163 288.454 78.5176 288.451C78.5164 288.454 78.5151 288.456 78.5137 288.459Z" fill="#727785"/>
<path d="M78.5433 288.763C78.4355 288.966 78.1821 289.037 78.0575 289.06L78.0531 289.034C78.3127 289.007 78.4839 288.873 78.5433 288.763C78.5451 288.759 78.5469 288.756 78.5487 288.752C78.547 288.756 78.5452 288.759 78.5433 288.763Z" fill="#727785"/>
<path d="M116.59 300H105.976C93.6784 300 98.984 296.501 102.095 295.823C95.141 293.448 100.265 288.974 103.78 290.84C101.584 282.698 109.087 284.394 110.551 288.974C113.479 284.225 118.603 286.599 115.492 291.688C120.799 289.483 120.799 293.893 118.603 295.25C123.909 296.099 120.943 297.689 118.016 297.689C121.493 299.555 118.931 300 116.59 300Z" fill="#EDEEF2"/>
<path d="M122.476 299.505H117.056C110.777 299.505 113.486 297.639 115.075 297.277C111.524 296.01 114.14 293.624 115.935 294.619C114.814 290.277 118.645 291.181 119.393 293.624C120.888 291.091 123.504 292.358 121.916 295.072C124.626 293.896 124.626 296.248 123.504 296.971C126.214 297.424 124.7 298.272 123.204 298.272C124.98 299.267 123.672 299.505 122.476 299.505Z" fill="#DFE0E6"/>
<path d="M98.2465 287.448C97.9587 287.04 97.5483 286.692 97.0183 286.58C97.9099 286.159 98.3659 286.228 98.9112 286.398C100.229 286.811 100.295 288.102 99.6938 288.197C99.0925 288.291 98.5447 287.871 98.2465 287.448Z" fill="#E5E6ED"/>
<path d="M97.6914 286.531C98.8394 286.511 99.7939 287.523 100.218 288.048L100.116 288.137C99.3303 286.984 98.3147 286.526 97.6914 286.531C97.6716 286.531 97.6518 286.532 97.6318 286.532C97.6513 286.531 97.6712 286.531 97.6914 286.531Z" fill="#727785"/>
<path d="M98.691 286.425C98.9392 286.538 99.0415 286.851 99.0793 287.007L99.0484 287.016C98.9966 286.689 98.8252 286.488 98.691 286.425C98.6867 286.423 98.6824 286.422 98.678 286.42C98.6823 286.421 98.6866 286.423 98.691 286.425Z" fill="#727785"/>
<path d="M98.3321 286.817C98.4636 286.888 98.6267 286.835 98.7031 286.802L98.696 286.787C98.5451 286.866 98.4038 286.855 98.3321 286.817C98.3298 286.816 98.3276 286.814 98.3253 286.813C98.3275 286.814 98.3298 286.815 98.3321 286.817Z" fill="#727785"/>
<path d="M99.2756 286.678C99.4866 286.85 99.5046 287.18 99.5011 287.34L99.469 287.341C99.5031 287.011 99.3893 286.773 99.2756 286.678C99.272 286.675 99.2683 286.672 99.2645 286.669C99.2682 286.672 99.2719 286.675 99.2756 286.678Z" fill="#727785"/>
<path d="M98.591 287.211C98.829 287.344 99.1419 287.239 99.2895 287.177L99.2781 287.147C98.9847 287.3 98.7208 287.282 98.591 287.211C98.5869 287.209 98.5828 287.206 98.5787 287.204C98.5827 287.206 98.5868 287.209 98.591 287.211Z" fill="#727785"/>
<path d="M98.8215 287.676C99.1598 287.873 99.5884 287.747 99.7898 287.669L99.7723 287.627C99.3735 287.821 99.006 287.782 98.8215 287.676C98.8157 287.673 98.8099 287.669 98.8041 287.666C98.8097 287.669 98.8155 287.673 98.8215 287.676Z" fill="#727785"/>
<path d="M122.979 290.916C123.267 290.508 123.677 290.16 124.207 290.048C123.315 289.627 122.859 289.696 122.314 289.867C120.996 290.279 120.93 291.571 121.531 291.665C122.133 291.76 122.681 291.339 122.979 290.916Z" fill="#E5E6ED"/>
<path d="M123.534 289.999C122.386 289.979 121.431 290.991 121.007 291.516L121.109 291.605C121.895 290.453 122.91 289.994 123.534 289.999C123.554 289.999 123.573 290 123.593 290.001C123.574 290 123.554 289.999 123.534 289.999Z" fill="#727785"/>
<path d="M122.534 289.894C122.286 290.006 122.184 290.32 122.146 290.475L122.177 290.484C122.229 290.157 122.4 289.956 122.534 289.894C122.539 289.892 122.543 289.89 122.547 289.888C122.543 289.89 122.539 289.892 122.534 289.894Z" fill="#727785"/>
<path d="M122.893 290.285C122.762 290.356 122.598 290.303 122.522 290.271L122.529 290.255C122.68 290.334 122.821 290.323 122.893 290.285C122.895 290.284 122.898 290.282 122.9 290.281C122.898 290.282 122.895 290.284 122.893 290.285Z" fill="#727785"/>
<path d="M121.95 290.146C121.739 290.319 121.721 290.648 121.724 290.808L121.756 290.809C121.722 290.48 121.836 290.241 121.95 290.146C121.953 290.143 121.957 290.14 121.961 290.138C121.957 290.14 121.953 290.143 121.95 290.146Z" fill="#727785"/>
<path d="M122.634 290.679C122.396 290.812 122.083 290.707 121.936 290.645L121.947 290.615C122.241 290.768 122.504 290.75 122.634 290.679C122.638 290.677 122.642 290.675 122.646 290.672C122.643 290.675 122.638 290.677 122.634 290.679Z" fill="#727785"/>
<path d="M122.404 291.145C122.065 291.341 121.637 291.215 121.435 291.138L121.453 291.095C121.852 291.29 122.219 291.25 122.404 291.145C122.41 291.141 122.415 291.138 122.421 291.134C122.416 291.138 122.41 291.141 122.404 291.145Z" fill="#727785"/>
<path d="M111.914 285.098C111.949 284.6 112.119 284.09 112.515 283.719C111.534 283.821 111.18 284.116 110.802 284.545C109.888 285.58 110.501 286.719 111.064 286.488C111.627 286.258 111.878 285.614 111.914 285.098Z" fill="#E5E6ED"/>
<path d="M111.913 284.026C110.921 284.604 110.629 285.964 110.538 286.632L110.672 286.656C110.747 285.263 111.378 284.345 111.913 284.026C111.93 284.016 111.948 284.006 111.965 283.997C111.948 284.006 111.931 284.015 111.913 284.026Z" fill="#727785"/>
<path d="M111.004 284.454C110.85 284.678 110.925 285 110.973 285.152L111.004 285.144C110.879 284.837 110.921 284.576 111.004 284.454C111.007 284.45 111.009 284.446 111.012 284.442C111.009 284.446 111.007 284.45 111.004 284.454Z" fill="#727785"/>
<path d="M111.514 284.603C111.438 284.732 111.271 284.77 111.189 284.783L111.187 284.765C111.357 284.755 111.472 284.672 111.514 284.603C111.515 284.6 111.516 284.598 111.517 284.596C111.516 284.598 111.515 284.6 111.514 284.603Z" fill="#727785"/>
<path d="M110.635 284.973C110.544 285.23 110.699 285.521 110.785 285.656L110.813 285.64C110.613 285.376 110.587 285.113 110.635 284.973C110.636 284.968 110.638 284.964 110.64 284.96C110.638 284.964 110.636 284.968 110.635 284.973Z" fill="#727785"/>
<path d="M111.496 285.074C111.362 285.311 111.04 285.383 110.881 285.407L110.875 285.375C111.206 285.354 111.422 285.202 111.496 285.074C111.499 285.07 111.501 285.066 111.503 285.062C111.501 285.066 111.499 285.07 111.496 285.074Z" fill="#727785"/>
<path d="M111.54 285.591C111.353 285.935 110.921 286.049 110.709 286.087L110.702 286.042C111.143 286.001 111.437 285.777 111.54 285.591C111.544 285.585 111.547 285.579 111.55 285.573C111.547 285.579 111.544 285.585 111.54 285.591Z" fill="#727785"/>
<path d="M101.466 285.002C101.449 284.708 101.352 284.407 101.122 284.186C101.699 284.253 101.905 284.429 102.124 284.684C102.654 285.3 102.285 285.966 101.956 285.826C101.626 285.686 101.483 285.306 101.466 285.002Z" fill="#E5E6ED"/>
<path d="M101.474 284.371C102.053 284.718 102.215 285.52 102.264 285.914L102.185 285.927C102.151 285.107 101.787 284.562 101.474 284.371C101.464 284.365 101.454 284.359 101.444 284.353C101.454 284.359 101.464 284.364 101.474 284.371Z" fill="#727785"/>
<path d="M102.006 284.629C102.095 284.762 102.049 284.951 102.019 285.04L102.001 285.035C102.077 284.856 102.054 284.702 102.006 284.629C102.004 284.627 102.003 284.625 102.001 284.622C102.003 284.625 102.004 284.627 102.006 284.629Z" fill="#727785"/>
<path d="M101.705 284.713C101.748 284.79 101.847 284.814 101.895 284.821L101.896 284.811C101.796 284.804 101.729 284.754 101.705 284.713C101.704 284.712 101.703 284.71 101.703 284.709C101.703 284.71 101.704 284.712 101.705 284.713Z" fill="#727785"/>
<path d="M102.219 284.937C102.271 285.089 102.178 285.259 102.126 285.338L102.11 285.328C102.229 285.174 102.247 285.02 102.219 284.937C102.218 284.935 102.217 284.932 102.216 284.929C102.217 284.932 102.218 284.935 102.219 284.937Z" fill="#727785"/>
<path d="M101.712 284.991C101.789 285.131 101.978 285.176 102.071 285.191L102.075 285.172C101.881 285.157 101.754 285.066 101.712 284.991C101.71 284.988 101.709 284.986 101.708 284.983C101.709 284.986 101.71 284.988 101.712 284.991Z" fill="#727785"/>
<path d="M101.682 285.295C101.79 285.498 102.043 285.568 102.168 285.592L102.172 285.566C101.913 285.539 101.741 285.404 101.682 285.295C101.68 285.291 101.678 285.287 101.677 285.284C101.678 285.287 101.68 285.291 101.682 285.295Z" fill="#727785"/>
<path d="M119.759 288.47C119.776 288.177 119.873 287.875 120.103 287.654C119.527 287.721 119.32 287.898 119.101 288.152C118.571 288.768 118.94 289.434 119.269 289.294C119.599 289.154 119.742 288.774 119.759 288.47Z" fill="#E5E6ED"/>
<path d="M119.751 287.839C119.172 288.186 119.01 288.988 118.961 289.383L119.04 289.395C119.074 288.575 119.438 288.03 119.751 287.839C119.761 287.833 119.771 287.827 119.782 287.821C119.772 287.827 119.761 287.833 119.751 287.839Z" fill="#727785"/>
<path d="M119.219 288.097C119.13 288.231 119.177 288.419 119.206 288.509L119.224 288.503C119.149 288.324 119.172 288.17 119.219 288.097C119.221 288.095 119.222 288.093 119.224 288.091C119.222 288.093 119.221 288.095 119.219 288.097Z" fill="#727785"/>
<path d="M119.52 288.181C119.477 288.258 119.379 288.282 119.33 288.289L119.329 288.279C119.429 288.272 119.496 288.223 119.52 288.181C119.521 288.18 119.522 288.179 119.522 288.177C119.522 288.179 119.521 288.18 119.52 288.181Z" fill="#727785"/>
<path d="M119.006 288.405C118.954 288.557 119.048 288.727 119.099 288.806L119.116 288.796C118.996 288.643 118.979 288.488 119.006 288.405C119.007 288.403 119.008 288.4 119.009 288.398C119.008 288.4 119.007 288.403 119.006 288.405Z" fill="#727785"/>
<path d="M119.514 288.459C119.436 288.599 119.247 288.644 119.154 288.659L119.15 288.64C119.345 288.625 119.471 288.534 119.514 288.459C119.515 288.456 119.516 288.454 119.518 288.451C119.516 288.454 119.515 288.456 119.514 288.459Z" fill="#727785"/>
<path d="M119.543 288.763C119.436 288.966 119.182 289.037 119.057 289.06L119.053 289.034C119.313 289.007 119.484 288.873 119.543 288.763C119.545 288.759 119.547 288.756 119.549 288.752C119.547 288.756 119.545 288.759 119.543 288.763Z" fill="#727785"/>
<rect x="197" y="169" width="8" height="130" fill="#20242E"/>
<rect x="197" y="169" width="6" height="130" fill="#334680"/>
<path d="M226.717 98.5634C230.026 98.5634 233.083 100.329 234.738 103.194L259.954 146.87C261.608 149.735 261.608 153.266 259.954 156.132L234.738 199.807C233.083 202.673 230.026 204.438 226.717 204.438L176.284 204.438C172.976 204.438 169.918 202.673 168.264 199.807L143.048 156.132C141.393 153.266 141.393 149.735 143.047 146.87L168.264 103.194C169.918 100.329 172.976 98.5634 176.284 98.5634L226.717 98.5634Z" fill="#2F63FF"/>
<path fill-rule="evenodd" clip-rule="evenodd" d="M155.589 177.854C194.159 173.665 224.18 140.992 224.18 101.308C224.18 100.389 224.164 99.4743 224.132 98.5634L176.284 98.5634C172.976 98.5634 169.918 100.329 168.264 103.194L143.047 146.87C141.393 149.735 141.393 153.266 143.047 156.132L155.589 177.854Z" fill="white" fill-opacity="0.15"/>
<path d="M229.315 108.543L251.873 147.615C253.085 149.715 253.085 152.301 251.873 154.401L229.315 193.473C228.102 195.573 225.862 196.866 223.438 196.866L178.321 196.866C175.897 196.866 173.657 195.573 172.445 193.473L149.886 154.401C148.674 152.301 148.674 149.715 149.886 147.615L172.445 108.543C173.657 106.443 175.897 105.15 178.321 105.15L223.438 105.15C225.862 105.15 228.102 106.443 229.315 108.543Z" stroke="white" stroke-width="3"/>
<path d="M189.026 159.908V155.308H186.786V148.828H181.546V155.308H176.226L184.106 136.708H178.866L170.986 155.308V159.908H181.546V164.308H186.786V159.908H189.026ZM194.445 162.388C195.805 163.988 197.885 164.748 200.685 164.748C203.485 164.748 205.525 163.948 206.885 162.348C208.245 160.748 208.925 158.388 208.925 155.228V145.468C208.925 142.428 208.245 140.148 206.885 138.588C205.525 137.068 203.485 136.268 200.685 136.268C197.965 136.268 195.925 137.068 194.525 138.628C193.125 140.188 192.445 142.468 192.445 145.468V155.228C192.445 158.428 193.085 160.788 194.445 162.388ZM203.045 158.988C202.645 159.788 201.845 160.188 200.685 160.188C199.525 160.188 198.725 159.788 198.325 158.988C197.925 158.188 197.725 156.788 197.725 154.788V146.228C197.725 144.268 197.925 142.868 198.325 142.068C198.725 141.268 199.485 140.868 200.685 140.868C201.845 140.868 202.645 141.268 203.045 142.068C203.445 142.868 203.685 144.268 203.685 146.228V154.788C203.685 156.788 203.445 158.188 203.045 158.988ZM230.354 159.908V155.308H228.114V148.828H222.874V155.308H217.554L225.434 136.708H220.194L212.314 155.308V159.908H222.874V164.308H228.114V159.908H230.354Z" fill="white"/>
<path d="M145.357 223H155.232L177.674 293.02H122.914L145.357 223Z" fill="white"/>
<path fill-rule="evenodd" clip-rule="evenodd" d="M145.357 223H155.232L164.295 251.277H136.294L145.357 223ZM133.704 259.357L130.395 269.68H170.193L166.884 259.357H133.704ZM127.806 277.76H172.783L177.674 293.02H122.914L127.806 277.76Z" fill="#2F63FF"/>
<rect x="109" y="293.02" width="82.5882" height="6.28389" fill="#2F63FF"/>
<path fill-rule="evenodd" clip-rule="evenodd" d="M175.516 286.288L177.674 293.021H122.914L125.072 286.288H175.516Z" fill="black" fill-opacity="0.2"/>
<mask id="mask0_2_1206" style="mask-type:alpha" maskUnits="userSpaceOnUse" x="109" y="223" width="83" height="77">
<path fill-rule="evenodd" clip-rule="evenodd" d="M145.357 223H155.232L164.295 251.277H136.294L145.357 223ZM133.704 259.357L130.395 269.68H170.193L166.884 259.357H133.704ZM127.806 277.76H172.783L177.674 293.02H122.914L127.806 277.76Z" fill="#2F63FF"/>
<rect x="109" y="293.02" width="82.5882" height="6.28389" fill="#2F63FF"/>
<path fill-rule="evenodd" clip-rule="evenodd" d="M175.516 286.288L177.674 293.021H122.914L125.072 286.288H175.516Z" fill="black" fill-opacity="0.2"/>
</mask>
<g mask="url(#mask0_2_1206)">
<circle cx="98.2276" cy="205.944" r="83.9348" fill="white" fill-opacity="0.2"/>
</g>
<path d="M2 300H402" stroke="#20242E" stroke-width="4" stroke-linecap="round" stroke-linejoin="round"/>
</svg>
