<?xml version="1.0" encoding="UTF-8"?><svg id="Layer_2" xmlns="http://www.w3.org/2000/svg" viewBox="0 0 526.75 122.75"><defs><style>.cls-1,.cls-2{stroke-width:0px;}.cls-2{fill:#ef3b24;}</style></defs><g id="Calque_1"><path class="cls-1" d="m514.34,90.98c-30.51-24.02-107.84-41.69-134.69-42.46-26.91-.8-30.2-3.14-38.92-6.1-6.91-2.35-41.16-19.83-63.84-30.31-3.37-1.78-6.9-3.28-10.51-4.61-1.76-.68-3.29-1.24-4.61-1.66-1.2-.38-2.49-.69-3.9-1.01-45.46-12.24-102.32,2.74-102.32,2.74l.03.02c-28.59,5.31-64.43,12.76-79.74,17.1-25.87,7.33-44.51,7.2-53.86,7.11-9.3-.09-19.9,17.22-21.79,45.6-2.02,31.37,13.58,45.57,13.38,45.37C-1.63,77.03,18.94,51.14,24.76,46.44c4.97-4.01,32.81-5.34,44.32-7.58,11.56-2.22,75.88-14.8,105.03-20.95,29.13-6.18,52.17-3.08,75.16.56,23.01,3.69,55.81,20.16,73.83,30.75,18.01,10.58,30.09,12.39,37.24,12.1,7.1-.33,27.98,1.14,71.8,6.3,43.86,5.2,82.76,23.91,82.22,23.34Z"/><path class="cls-1" d="m261.34,122.14l-46.66-.04s-10.39-1.42-2.74-23.84c5.57-16.36,11.16-17.58,17.04-17.22,2.19.13,45.58-.03,45.58-.03l-3.99,10.28-43.8-.53s-4.01,6.47,2.51,6.57l38.59.43-2.66,8.04-41.67-.46s-3.96,7.03,2.99,7.11c6.95.09,38.17.03,38.17.03l-3.37,9.65Z"/><path class="cls-2" d="m413.03,113.75c-.07,4.27-3.7,7.68-8.01,7.64-4.36,0-7.87-3.56-7.8-7.85.07-4.22,3.61-7.57,8.04-7.57,4.26.04,7.76,3.54,7.76,7.79Z"/><path class="cls-1" d="m330.87,103.78c-4.47,13.66-11.93,18.35-29.06,18.35-8.85,0-15.36-1.22-19.43-3.63-4.11-2.43-6.15-6.06-6.15-10.91,0-1.21.11-2.49.36-3.81l8.38-22.84h12.8l-8.43,22.84c-.14.85-.2,1.6-.2,2.24,0,1.04.22,1.94.67,2.66.47.72,1.24,1.32,2.36,1.76,1.12.43,2.6.77,4.44.96,1.86.2,4.2.31,7.05.31,2.48,0,4.56-.15,6.28-.43,1.71-.27,3.11-.74,4.23-1.39,1.11-.65,1.98-1.49,2.56-2.49.59-1.01,9.66-26.47,9.66-26.47h12.83l-8.35,22.84Z"/><path class="cls-1" d="m15.67,122.14s9.96-41.09,11.33-41.09l18.15-.02,11.08,12.78,18.88-12.8,16.33.02-8.91,41.11h-15.07l6.98-26.39-16.64,11.9-10.02-.08-10.81-13.16-7.08,27.74h-14.21Z"/><path class="cls-2" d="m417.34,122.14s7.72-32.08,8.79-32.08h13.91l8.75,10.12,14.64-9.93,12.71-.24-6.95,32.14h-11.69l5.41-20.47-12.91,9.23-7.77-.06-8.38-10.21-5.49,21.51h-11.02Z"/><path class="cls-2" d="m489.31,122.14l7.51-8.11h11.06c1.03,0,1.93.04,2.69.1-.35-.56-.74-1.28-1.2-2.15-.43-.87-.87-1.68-1.25-2.44l-4.28-8.35-18.86,20.94h-11.79l25.79-28.55c.85-.92,1.83-1.72,2.99-2.45,1.15-.72,2.52-1.07,4.09-1.07s2.71.34,3.59,1.01c.88.68,1.58,1.52,2.14,2.52l14.96,28.55h-37.44Z"/><path class="cls-2" d="m145.73,80.99c-4.05-.09-30.6-.02-30.6-.02,0,0-13.92-.74-17.02,9.87-10.51,27.82,3.3,30.91,3.3,30.91,3.76.43,28.72.78,33.31-.21,10.24-2.2,14.07-12.8,17.3-24.41,3.14-11.6-2.23-16.01-6.3-16.14Zm-5.57,17.92c-1.88,6.77-4.15,12.72-10.08,14.24-2.89.74-18.48.12-19.41-.21,0,0-8.1-1.47-1.96-17.71,3.04-6.96,10.18-6.05,10.18-6.05,0,0,15.22-.09,17.59-.03,2.38.08,5.53,2.97,3.69,9.75Z"/><polygon class="cls-1" points="158.9 89.04 162.42 81.03 212.47 81.13 208.32 89.22 158.9 89.04"/><polygon class="cls-1" points="178.84 87.44 191.34 87.58 183.56 122.06 169.03 122.14 178.84 87.44"/><path class="cls-1" d="m394.17,122.14h-17.19l-7.33-10.77h-17.6l-4.04,10.77h-12.84l7.95-20.82h31.88c1.07,0,2.1-.12,3.07-.36.97-.24,1.83-.58,2.56-1.04.69-.45,1.27-1,1.71-1.67.45-.67.65-1.41.65-2.22,0-1.33-.54-2.35-1.67-3.01-1.12-.68-2.68-1-4.65-1h-29.78l3.96-10.59h26.69c2.13,0,4.36.18,6.59.54,2.29.37,4.33,1.03,6.17,1.98,1.83.96,3.34,2.23,4.48,3.81,1.17,1.58,1.75,3.59,1.75,6.02,0,1.82-.34,3.57-.97,5.23-.64,1.66-1.55,3.16-2.74,4.5-1.15,1.34-2.59,2.48-4.25,3.41-1.64.94-3.47,1.59-5.44,1.94.59.53,1.23,1.19,1.96,2,.72.81,1.66,1.93,2.82,3.35l6.27,7.92Z"/></g></svg>